<svg width="24" height="24" viewBox="0 0 24 24" fill="none" xmlns="http://www.w3.org/2000/svg">
<g clip-path="url(#clip0_65_1069)">
<path d="M24 12.074C24 5.37166 18.6123 0 12 0C5.38775 0 0 5.42095 0 12.074C0 18.0863 4.40816 23.1129 10.1388 24V15.5729H7.10204V12.074H10.1388V9.41273C10.1388 6.40658 11.951 4.73101 14.6939 4.73101C16.0163 4.73101 17.3877 4.97741 17.3877 4.97741V7.9343H15.8204C14.351 7.9343 13.8612 8.87063 13.8612 9.80698V12.074H17.1918L16.6531 15.5729H13.8612V24C19.5918 23.1129 24 18.1355 24 12.074Z" fill="white"/>
</g>
<defs>
<clipPath id="clip0_65_1069">
<rect width="24" height="24" fill="white"/>
</clipPath>
</defs>
</svg>
