<svg width="24" height="24" viewBox="0 0 24 24" fill="none" xmlns="http://www.w3.org/2000/svg">
<g clip-path="url(#clip0_65_1072)">
<path d="M6.94979 0.046422C3.10424 0.046422 0 3.15667 0 7.00968V17.0368C0 20.8897 3.10424 24 6.94979 24H17.0501C20.8957 24 24 20.8897 24 17.0368V6.96326C24 3.11026 20.8957 0 17.0501 0L6.94979 0.046422ZM6.94979 2.08898H17.0501C19.7838 2.08898 21.915 4.27081 21.915 6.96326V16.9904C21.915 19.7292 19.7375 21.8647 17.0501 21.8647H6.94979C4.21621 21.8647 2.08494 19.6828 2.08494 16.9904V6.96326C2.08494 4.27081 4.21621 2.08898 6.94979 2.08898ZM18.4401 4.13154C17.6525 4.13154 17.0039 4.78144 17.0039 5.57061C17.0039 6.35978 17.6525 7.00968 18.4401 7.00968C19.2278 7.00968 19.8764 6.35978 19.8764 5.57061C19.8764 4.78144 19.2278 4.13154 18.4401 4.13154ZM12 5.84914C8.61774 5.84914 5.83782 8.63444 5.83782 12.0232C5.83782 15.412 8.61774 18.1973 12 18.1973C15.3822 18.1973 18.1621 15.412 18.1621 12.0232C18.1621 8.63444 15.3822 5.84914 12 5.84914ZM12 7.8917C14.2702 7.8917 16.0771 9.70215 16.0771 11.9768C16.0771 14.2515 14.2702 16.0619 12 16.0619C9.72972 16.0619 7.92277 14.2515 7.92277 11.9768C7.87643 9.70215 9.72972 7.8917 12 7.8917Z" fill="white"/>
</g>
<defs>
<clipPath id="clip0_65_1072">
<rect width="24" height="24" fill="white"/>
</clipPath>
</defs>
</svg>
